<svg fill="#ffffff" version="1.1" id="Capa_1" xmlns="http://www.w3.org/2000/svg" xmlns:xlink="http://www.w3.org/1999/xlink" width="256px" height="256px" viewBox="0 0 485.135 485.135" xml:space="preserve" stroke="#ffffff"><g id="SVGRepo_bgCarrier" stroke-width="0"></g><g id="SVGRepo_tracerCarrier" stroke-linecap="round" stroke-linejoin="round"></g><g id="SVGRepo_iconCarrier"> <g> <g> <g> <path d="M403.713,111.196H81.423C36.53,111.196,0,147.726,0,192.618v99.899c0,44.893,36.53,81.422,81.423,81.422h322.288 c44.896,0,81.424-36.53,81.424-81.422v-99.899C485.135,147.726,448.605,111.196,403.713,111.196z M451.68,292.518 c0,26.446-21.52,47.963-47.969,47.963H81.423c-26.448,0-47.967-21.517-47.967-47.963v-99.9c0-26.448,21.519-47.963,47.967-47.963 h322.288c26.449,0,47.969,21.515,47.969,47.963V292.518L451.68,292.518z"></path> <path d="M349.771,160.337c-3.283-3.284-8.201-4.248-12.482-2.481c-4.264,1.779-7.059,5.946-7.059,10.57v40.741H91.291 c-18.444,0-33.395,14.967-33.395,33.391c0,18.461,14.95,33.396,33.395,33.396H330.23v40.742c0,4.639,2.795,8.807,7.059,10.585 c4.281,1.767,9.199,0.787,12.482-2.481l74.151-74.137c2.14-2.153,3.351-5.062,3.351-8.104c0-3.038-1.211-5.946-3.351-8.084 L349.771,160.337z"></path> </g> </g> </g> </g></svg>